PathFileType	4	(X/Y/Z)	Walk4.trc
DataRate	CameraRate	NumFrames	NumMarkers	Units	OrigDataRate	OrigDataStartFrame	OrigNumFrames
200.000000	200.000000	4	59	mm	200.000000	239	583
Frame#	Times		LFHD		RFHD		CLAV		STRN		LASI		RASI		RACR1		RUA1		RElbow		RFA1		RWRR		RWRU		RCAR		LACR1		LUA1		LElbow		LFA1		LWRR		LWRU		LCAR		RTH3		RTH2		RTB1		RTB2		LTH1		LTH3		LTH2		LLFC		LMFC		LTB1		LTB3		LTB2		LTB4		LMT1		LToe		LMT5		RTB4		RTB3		RMFC		LTH4		RTH4		RMT1		RElbowM		RLFC		LBHD		RToe		RMMAL		RTH1		RCAL		RBack		LLMAL		RPSI		C7		LElbowM		T10		LPSI		LMMAL		RBHD		LCAL
			X1	Y1	Z1	X2	Y2	Z2	X3	Y3	Z3	X4	Y4	Z4	X5	Y5	Z5	X6	Y6	Z6	X7	Y7	Z7	X8	Y8	Z8	X9	Y9	Z9	X10	Y10	Z10	X11	Y11	Z11	X12	Y12	Z12	X13	Y13	Z13	X14	Y14	Z14	X15	Y15	Z15	X16	Y16	Z16	X17	Y17	Z17	X18	Y18	Z18	X19	Y19	Z19	X20	Y20	Z20	X21	Y21	Z21	X22	Y22	Z22	X23	Y23	Z23	X24	Y24	Z24	X25	Y25	Z25	X26	Y26	Z26	X27	Y27	Z27	X28	Y28	Z28	X29	Y29	Z29	X30	Y30	Z30	X31	Y31	Z31	X32	Y32	Z32	X33	Y33	Z33	X34	Y34	Z34	X35	Y35	Z35	X36	Y36	Z36	X37	Y37	Z37	X38	Y38	Z38	X39	Y39	Z39	X40	Y40	Z40	X41	Y41	Z41	X42	Y42	Z42	X43	Y43	Z43	X44	Y44	Z44	X45	Y45	Z45	X46	Y46	Z46	X47	Y47	Z47	X48	Y48	Z48	X49	Y49	Z49	X50	Y50	Z50	X51	Y51	Z51	X52	Y52	Z52	X53	Y53	Z53	X54	Y54	Z54	X55	Y55	Z55	X56	Y56	Z56	X57	Y57	Z57	X58	Y58	Z58	X59	Y59	Z59

239	1.195	-600.76	1632.4	-46.846	-595.26	1641.5	52.564	-585.59	1380.1	30.579	-516.48	1222.9	35.333	-625.66	951.36	-135.51	-642.52	967.09	231.99	-706.16	1464.6	198.49	-716.77	1301.8	324.92	-684.78	1163.8	389.14	-608.95	1033.6	403.79	-552.4	927.64	335.08	-557.96	932.73	416.42	-499.6	863.71	385.2	-699.46	1444.9	-152.62	-777.2	1286.7	-234.28	-839.73	1132.2	-274.77	-857.57	992.16	-283.28	-836.17	859.91	-223.99	-891.32	854.55	-274.16	-860.15	770.29	-248.37	-821.84	593.85	224.94	-748.48	668.87	227.46	-854.68	349.51	135.33	-916.04	277.72	182.34	-625.67	742.75	-162.62	-552.94	589.27	-136.7	-539.66	693.48	-130.83	-541.21	507.58	-134.65	-510.98	508.19	20.37	-429.33	423.84	-85.684	-377.89	262.06	-59.323	-433.46	325.44	-120.81	-400.74	345.79	-72.161	-235.86	108.64	-63.78	-201.08	129.91	-109.37	-290.98	65.164	-125.39	-895.98	273.35	124.8	-936.81	198.24	113.81	-867.69	491.23	55.477	-590.54	666.65	-150.53	-805.46	676.96	238.78	-915.32	25.384	86.902	-719.94	1076.6	295.04	-870.29	483.47	210.33	-747.1	1547	-42.521	-866.14	25.606	123.5	-1027.7	92.319	48.8	-790.3	761.49	253.29	-1130	76.026	85.191	-845.09	1338.1	143.57	-400.26	79.927	-54.813	-892.25	1016.1	59.98	-781.96	1456.6	27.06	-906.51	1098.4	-173.68	-843.96	1140.3	27.442	-874.32	1006.1	-19.755	-367.22	101.98	24.141	-725.95	1565.7	103.47	-423.19	34.354	8.1412
240	1.2	-593.9	1631.1	-48.453	-588.56	1640.4	50.975	-578.64	1378.8	29.277	-509.62	1221.7	34.462	-618.51	949.9	-135.87	-635.97	966.1	231.46	-699.39	1463.7	196.97	-710.02	1301.1	323.65	-678.27	1163.2	388	-602.43	1033.1	402.76	-545.78	927.14	334.08	-551.35	932.22	415.42	-492.88	863.33	384.2	-692.47	1443.2	-154.07	-770.31	1285	-235.42	-833.02	1130.5	-275.63	-851.03	990.42	-283.83	-829.96	858.3	-224.13	-885.03	852.9	-274.42	-854.21	768.62	-248.14	-817.07	593.19	224.69	-743.38	667.89	227.34	-851.46	348.77	135.24	-913.58	277.65	182.23	-617.96	742.33	-163.08	-545.1	588.94	-137.27	-531.82	693.13	-131.53	-533.29	507.27	-135.39	-503.18	507.76	19.539	-422.02	422.58	-85.918	-372.55	260.26	-59.193	-427.07	324.18	-120.99	-394.35	344.25	-72.206	-232.48	104.38	-63.158	-197.37	125.15	-108.4	-288.32	61.959	-124.86	-893.49	273.01	124.72	-935.05	198.32	113.73	-862.88	490.63	55.228	-582.78	666.26	-150.93	-800.31	676.24	238.52	-915.24	25.382	86.945	-713.41	1075.8	294.03	-866.13	483.06	210.12	-740.2	1545.6	-44.214	-866.02	25.534	123.57	-1026.9	93.279	48.774	-784.8	760.71	253.01	-1129.4	77.967	85.141	-838.39	1337.2	142.17	-397.27	78.578	-54.776	-885.46	1014.8	59.258	-775.17	1455.3	25.476	-899.98	1097	-174.57	-837.11	1139.1	26.777	-867.42	1004.8	-20.259	-364.12	100.12	24.382	-719.24	1564.5	101.77	-421.23	33.862	8.2501
241	1.205	-587.02	1629.9	-50.09	-581.83	1639.3	49.356	-571.66	1377.6	27.937	-502.73	1220.5	33.548	-611.38	948.53	-136.25	-629.34	965.15	230.89	-692.57	1462.9	195.44	-703.27	1300.5	322.34	-671.77	1162.6	386.83	-595.97	1032.6	401.7	-539.26	926.63	333.07	-544.83	931.71	414.4	-486.28	862.93	383.2	-685.48	1441.6	-155.55	-763.39	1283.2	-236.58	-826.22	1128.7	-276.53	-844.38	988.66	-284.42	-823.61	856.67	-224.32	-878.59	851.21	-274.74	-848.1	766.93	-247.97	-812.14	592.55	224.42	-738.14	666.95	227.2	-848.1	348.06	135.13	-910.99	277.62	182.12	-610.24	742.03	-163.55	-537.3	588.71	-137.89	-523.99	692.89	-132.28	-525.42	507.06	-136.21	-495.54	507.39	18.636	-414.77	421.4	-86.222	-367.34	258.55	-59.124	-420.76	323.02	-121.25	-388.06	342.78	-72.312	-229.3	100	-62.553	-193.85	120.23	-107.4	-285.89	58.695	-124.35	-890.88	272.72	124.65	-933.21	198.46	113.65	-857.9	490.04	54.97	-575.04	665.98	-151.36	-795.03	675.54	238.23	-915.17	25.378	86.987	-706.89	1075.1	292.99	-861.79	482.68	209.9	-733.27	1544.3	-45.934	-865.91	25.469	123.63	-1026.1	94.344	48.777	-779.18	759.95	252.7	-1128.8	80.086	85.135	-831.66	1336.3	140.76	-394.51	77.367	-54.796	-878.62	1013.6	58.562	-768.34	1454.2	23.869	-893.36	1095.6	-175.49	-830.24	1137.9	26.164	-860.5	1003.6	-20.732	-361.22	98.379	24.573	-712.51	1563.3	100.04	-419.54	33.58	8.3231
242	1.21	-580.12	1628.8	-51.756	-575.06	1638.3	47.706	-564.65	1376.4	26.562	-495.8	1219.3	32.593	-604.27	947.27	-136.65	-622.64	964.24	230.28	-685.71	1462.1	193.9	-696.51	1300	321.01	-665.29	1162.1	385.62	-589.57	1032.1	400.62	-532.83	926.12	332.03	-538.42	931.2	413.36	-479.78	862.53	382.18	-678.48	1440	-157.05	-756.43	1281.5	-237.74	-819.36	1127	-277.46	-837.62	986.87	-285.04	-817.12	855.02	-224.54	-872.02	849.5	-275.1	-841.81	765.23	-247.87	-807.03	591.92	224.11	-732.75	666.05	227.01	-844.59	347.38	135.01	-908.26	277.65	182.01	-602.53	741.88	-164.05	-529.52	588.6	-138.58	-516.17	692.76	-133.09	-517.59	506.99	-137.1	-488.05	507.09	17.661	-407.59	420.32	-86.608	-362.24	256.94	-59.133	-414.54	321.98	-121.58	-381.84	341.41	-72.493	-226.3	95.581	-61.994	-190.5	115.2	-106.41	-283.68	55.422	-123.89	-888.15	272.48	124.57	-931.27	198.69	113.57	-852.75	489.47	54.704	-567.32	665.83	-151.84	-789.59	674.86	237.91	-915.1	25.371	87.026	-700.42	1074.5	291.9	-857.27	482.32	209.69	-726.3	1543	-47.677	-865.8	25.41	123.67	-1025.2	95.521	48.815	-773.41	759.23	252.36	-1128	82.394	85.18	-824.91	1335.5	139.35	-391.95	76.313	-54.877	-871.74	1012.3	57.899	-761.48	1453.1	22.244	-886.66	1094.1	-176.44	-823.36	1136.9	25.606	-853.57	1002.5	-21.179	-358.48	96.778	24.703	-705.75	1562.3	98.286	-418.07	33.513	8.3518
